<svg width="137" height="138" viewBox="0 0 137 138" fill="none" xmlns="http://www.w3.org/2000/svg">
<path d="M68.5301 137.13C106.174 137.13 136.69 106.613 136.69 68.9696C136.69 31.3258 106.174 0.80957 68.5301 0.80957C30.8864 0.80957 0.370117 31.3258 0.370117 68.9696C0.370117 106.613 30.8864 137.13 68.5301 137.13Z" fill="url(#paint0_linear_2784_179)"/>
<path d="M117.65 66.7297L97.68 101.32C96.32 103.67 93.33 104.47 90.98 103.11L55.94 82.8797C53.59 81.5197 52.79 78.5297 54.15 76.1797L81.16 29.3997C82.51 27.0597 85.5099 26.2497 87.8599 27.6097L110.7 40.7997L117.65 66.7297Z" fill="white"/>
<path d="M90.7799 103.46L55.7399 83.2298C53.1999 81.7698 52.3299 78.5098 53.7999 75.9798L80.8099 29.1998C82.2699 26.6598 85.5299 25.7898 88.0599 27.2598L111.05 40.5298L118.09 66.7898L98.0399 101.52C96.5799 104.06 93.3199 104.93 90.7899 103.46H90.7799ZM87.6499 27.9598C85.4999 26.7198 82.7499 27.4598 81.5099 29.5998L54.4999 76.3798C53.2599 78.5298 53.9999 81.2798 56.1399 82.5198L91.1799 102.75C93.3299 103.99 96.0799 103.25 97.3199 101.11L117.2 66.6698L110.34 41.0598L87.6399 27.9598H87.6499Z" fill="#F1F1F1"/>
<path d="M110.7 40.79L103.97 52.44C102.39 55.18 103.33 58.69 106.07 60.28L117.54 66.9L110.69 40.79H110.7Z" fill="white"/>
<path d="M110.55 41.86L104.32 52.65C102.85 55.19 103.73 58.46 106.27 59.93L116.89 66.06L110.55 41.86ZM117.69 67.46L117.34 67.26L116.99 67.06L105.87 60.64C102.93 58.94 101.93 55.18 103.62 52.25L110.14 40.95L110.34 40.6L110.54 40.25L111.04 40.54L111.1 40.77L117.97 66.97L117.68 67.47L117.69 67.46Z" fill="#F1F1F1"/>
<path d="M62.7202 41.3394L82.6902 75.9294C84.0502 78.2794 83.2402 81.2694 80.9002 82.6294L45.8601 102.859C43.5101 104.219 40.5202 103.409 39.1602 101.069L12.1502 54.2894C10.8002 51.9494 11.6002 48.9494 13.9402 47.5894L36.7802 34.3994L62.7102 41.3494L62.7202 41.3394Z" fill="white"/>
<path d="M81.1001 82.9797L46.0601 103.21C43.5201 104.67 40.2701 103.8 38.8101 101.27L11.8001 54.4897C10.3401 51.9497 11.2101 48.6997 13.7401 47.2397L36.7301 33.9697L62.9901 41.0097L83.0401 75.7397C84.5001 78.2797 83.6301 81.5297 81.1001 82.9897V82.9797ZM14.1501 47.9397C12.0001 49.1797 11.2701 51.9297 12.5101 54.0797L39.5201 100.86C40.7601 103.01 43.5101 103.74 45.6601 102.5L80.7001 82.2697C82.8501 81.0297 83.5801 78.2797 82.3401 76.1297L62.4601 41.6897L36.8501 34.8297L14.1501 47.9297V47.9397Z" fill="#F1F1F1"/>
<path d="M36.79 34.3906L43.52 46.0406C45.1 48.7806 48.61 49.7206 51.36 48.1406L62.83 41.5206L36.79 34.3906Z" fill="white"/>
<path d="M37.64 35.0502L43.87 45.8402C45.34 48.3802 48.6 49.2602 51.15 47.7902L61.77 41.6602L37.64 35.0502ZM63.38 41.6702L63.03 41.8702L62.68 42.0702L51.56 48.4902C48.62 50.1902 44.86 49.1802 43.17 46.2402L36.65 34.9402L36.45 34.5902L36.25 34.2402L36.75 33.9502L36.98 34.0102L63.1 41.1602L63.39 41.6602L63.38 41.6702Z" fill="#F1F1F1"/>
<path d="M99.3 49.53V98.42C99.3 101.74 96.61 104.42 93.3 104.42H43.77C40.45 104.42 37.77 101.74 37.77 98.42V32.29C37.77 28.98 40.45 26.29 43.77 26.29H76.06L99.3 49.53Z" fill="white"/>
<path d="M93.3 104.92H43.77C40.19 104.92 37.27 102 37.27 98.42V32.29C37.27 28.71 40.19 25.79 43.77 25.79H76.27L99.8 49.32V98.42C99.8 102 96.88 104.92 93.3 104.92ZM43.77 26.79C40.74 26.79 38.27 29.26 38.27 32.29V98.42C38.27 101.45 40.74 103.92 43.77 103.92H93.3C96.33 103.92 98.8 101.45 98.8 98.42V49.74L75.85 26.79H43.77Z" fill="#E0E0E0"/>
<path d="M76.0601 26.29V42.76C76.0601 46.64 79.2 49.78 83.08 49.78H99.3L76.0601 26.29Z" fill="white"/>
<path d="M76.5601 27.51V42.76C76.5601 46.36 79.49 49.28 83.08 49.28H98.1001L76.5601 27.5V27.51ZM99.8 50.28H83.08C78.93 50.28 75.5601 46.91 75.5601 42.76V25.79H76.2701L76.4801 26L99.8 49.57V50.28Z" fill="#E0E0E0"/>
<path d="M68.6802 117.73C77.5167 117.73 84.6802 110.567 84.6802 101.73C84.6802 92.8939 77.5167 85.7305 68.6802 85.7305C59.8436 85.7305 52.6802 92.8939 52.6802 101.73C52.6802 110.567 59.8436 117.73 68.6802 117.73Z" fill="black"/>
<path d="M67.6802 102.73H61.6802V100.73H67.6802V94.7305H69.6802V100.73H75.6802V102.73H69.6802V108.73H67.6802V102.73Z" fill="white"/>
<defs>
<linearGradient id="paint0_linear_2784_179" x1="68.5301" y1="137.13" x2="68.5301" y2="0.80957" gradientUnits="userSpaceOnUse">
<stop stop-color="white"/>
<stop offset="1" stop-color="#F5F5F5"/>
</linearGradient>
</defs>
</svg>
